<svg xmlns="http://www.w3.org/2000/svg" xmlns:xlink="http://www.w3.org/1999/xlink" width="24" height="24">
  <defs>
    <path id="a" d="M0 0h24v24H0V0z"/>
  </defs>
  <clipPath id="b">
    <use xlink:href="#a" overflow="visible"/>
  </clipPath>
  <path d="M9 11.2V7.5a2.5 2.5 0 0 1 5 0v3.7A4.5 4.5 0 0 0 11.5 3 4.5 4.5 0 0 0 9 11.2zm9.8 4.7l-4.5-2.3-.5-.1H13v-6a1.5 1.5 0 1 0-3 0v10.7l-3.4-.7h-.3c-.3 0-.6.1-.8.3l-.8.8 5 5c.3.2.6.4 1 .4h6.8c.8 0 1.4-.6 1.5-1.3l.7-5.3v-.1c0-.7-.3-1.2-.9-1.4z" clip-path="url(#b)" transform="translate(0 -2)"/>
</svg>