<?xml version="1.0" encoding="UTF-8" standalone="no"?>
<svg
   xmlns:dc="http://purl.org/dc/elements/1.1/"
   xmlns:cc="http://creativecommons.org/ns#"
   xmlns:rdf="http://www.w3.org/1999/02/22-rdf-syntax-ns#"
   xmlns:svg="http://www.w3.org/2000/svg"
   xmlns="http://www.w3.org/2000/svg"
   id="svg8"
   version="1.1"
   viewBox="0 0 220 220"
   height="220mm"
   width="220mm">
  <g
     transform="translate(-67.090775,-40.525283)"
     id="layer1">
    <path
       id="rect3713"
       d="m 150.3999,60.525299 c -1.13784,0 -2.05362,0.994051 -2.05362,2.229138 v 19.425578 h -23.71741 c -0.6513,0 -1.17564,0.569157 -1.17564,1.276117 V 249.24916 c 0,0.70696 0.52434,1.27612 1.17564,1.27612 h 108.19442 c 0.6513,0 1.17564,-0.56916 1.17564,-1.27612 V 83.456132 c 0,-0.70696 -0.52434,-1.276117 -1.17564,-1.276117 H 209.10588 V 62.754437 c 0,-1.235087 -0.91578,-2.229138 -2.05362,-2.229138 z m 56.50095,40.937821 -24.01559,41.31137 31.01567,-0.35675 -67.16592,88.69879 22.19399,-71.30658 -22.54591,-0.0236 21.71082,-58.24475 z"
       style="fill:#b3b3b3;stroke:none;" />
  </g>
</svg>
